<svg width="20" height="22" viewBox="0 0 20 22" fill="none" xmlns="http://www.w3.org/2000/svg">
<path d="M10.438 0.0100057C10.09 -0.0149943 9.74098 -0.00899429 9.39698 0.0260057C6.64498 0.304006 3.99698 2.50501 4.00098 6.00301V9.00101H3.00098C1.35598 9.00101 0.000976562 10.356 0.000976562 12.001V19.001C0.000976562 20.646 1.35598 22.001 3.00098 22.001H17.001C18.646 22.001 20.001 20.646 20.001 19.001V12.001C20.001 10.356 18.646 9.00101 17.001 9.00101H6.00098V5.99901C5.99798 3.46301 7.69898 2.20801 9.59898 2.01701C11.499 1.82601 13.417 2.71601 13.921 5.20101C14.187 6.50701 16.148 6.10901 15.882 4.80301C15.273 1.80401 12.873 0.184006 10.439 0.0120057L10.438 0.0100057ZM2.99998 11H17C17.571 11 18 11.429 18 12V19C18 19.571 17.571 20 17 20H2.99998C2.42898 20 1.99998 19.571 1.99998 19V12C1.99998 11.429 2.42898 11 2.99998 11Z" fill="#8A94A6"/>
</svg>
