<svg width="16" height="12" viewBox="0 0 16 12" fill="none" xmlns="http://www.w3.org/2000/svg">
<path d="M2.66663 0C1.56996 0 0.666626 0.903333 0.666626 2V10C0.666626 11.0967 1.56996 12 2.66663 12H13.3333C14.43 12 15.3333 11.0967 15.3333 10V2C15.3333 0.903333 14.43 0 13.3333 0H2.66663ZM2.66663 1.33333H13.3333C13.596 1.33333 13.8153 1.48667 13.9246 1.706L7.99996 5.85333L2.07529 1.706C2.18396 1.48733 2.40396 1.33333 2.66663 1.33333ZM1.99996 3.28L7.61729 7.212C7.84729 7.37333 8.15329 7.37333 8.38263 7.212L14 3.28V10C14 10.37 13.7033 10.6667 13.3333 10.6667H2.66663C2.29663 10.6667 1.99996 10.37 1.99996 10V3.28Z" fill="#F58E0A"/>
</svg>
