<svg width="24" height="24" viewBox="0 0 24 24" fill="none" xmlns="http://www.w3.org/2000/svg">
<path d="M11.984 0.985985C11.438 0.994985 11 1.43899 11 1.98599C11 1.99099 11 1.99599 11 1.99999V1.99899V5.99899C11 6.00299 11 6.00799 11 6.01299C11 6.56499 11.448 7.01299 12 7.01299C12.552 7.01299 13 6.56499 13 6.01299C13 6.00799 13 6.00299 13 5.99799V5.99899V1.99899C13 1.99499 13 1.98999 13 1.98499C13 1.43299 12.552 0.984985 12 0.984985C11.995 0.984985 11.989 0.984985 11.984 0.984985H11.985L11.984 0.985985ZM4.91996 3.91999C4.36796 3.91999 3.91996 4.36799 3.91996 4.91999C3.91996 5.20099 4.03596 5.45499 4.22196 5.63599L7.05196 8.46598C7.23396 8.65598 7.48996 8.77298 7.77296 8.77298C8.32496 8.77298 8.77296 8.32499 8.77296 7.77298C8.77296 7.48998 8.65496 7.23399 8.46596 7.05199L5.63596 4.22199C5.45396 4.03499 5.19996 3.91899 4.91896 3.91899L4.91996 3.91999ZM19.051 3.91999C18.781 3.92799 18.539 4.04299 18.364 4.22299L15.534 7.05299C15.344 7.23499 15.227 7.49099 15.227 7.77399C15.227 8.32599 15.675 8.77399 16.227 8.77399C16.51 8.77399 16.766 8.65599 16.948 8.46699L19.778 5.63699C19.965 5.45499 20.081 5.20099 20.081 4.91999C20.081 4.36799 19.633 3.91999 19.081 3.91999C19.071 3.91999 19.06 3.91999 19.05 3.91999H19.052H19.051ZM12 9.99999C10.895 9.99999 9.99996 10.895 9.99996 12C9.99996 13.105 10.895 14 12 14C13.105 14 14 13.105 14 12C14 10.895 13.105 9.99999 12 9.99999ZM1.99996 11C1.99596 11 1.99096 11 1.98596 11C1.43396 11 0.985962 11.448 0.985962 12C0.985962 12.552 1.43396 13 1.98596 13C1.99096 13 1.99596 13 2.00096 13H5.99996C6.00396 13 6.00896 13 6.01396 13C6.56596 13 7.01396 12.552 7.01396 12C7.01396 11.448 6.56596 11 6.01396 11C6.00896 11 6.00396 11 5.99896 11H1.99996ZM18 11C17.996 11 17.991 11 17.986 11C17.434 11 16.986 11.448 16.986 12C16.986 12.552 17.434 13 17.986 13C17.991 13 17.996 13 18.001 13H22C22.004 13 22.009 13 22.014 13C22.566 13 23.014 12.552 23.014 12C23.014 11.448 22.566 11 22.014 11C22.009 11 22.004 11 21.999 11H18ZM7.73996 15.23C7.46996 15.238 7.22796 15.353 7.05296 15.533L4.22296 18.363C4.03296 18.545 3.91596 18.801 3.91596 19.084C3.91596 19.636 4.36396 20.084 4.91596 20.084C5.19896 20.084 5.45496 19.966 5.63696 19.777L8.46696 16.947C8.65396 16.765 8.76996 16.511 8.76996 16.23C8.76996 15.678 8.32196 15.23 7.76996 15.23C7.75996 15.23 7.74896 15.23 7.73896 15.23H7.74096H7.73996ZM16.23 15.23C15.678 15.23 15.23 15.678 15.23 16.23C15.23 16.511 15.346 16.765 15.532 16.946L18.362 19.776C18.544 19.966 18.8 20.083 19.083 20.083C19.635 20.083 20.083 19.635 20.083 19.083C20.083 18.8 19.965 18.544 19.776 18.362L16.946 15.532C16.764 15.345 16.51 15.229 16.229 15.229L16.23 15.23ZM11.984 16.986C11.438 16.995 11 17.439 11 17.986C11 17.991 11 17.996 11 18V17.999V21.999C11 22.003 11 22.008 11 22.013C11 22.565 11.448 23.013 12 23.013C12.552 23.013 13 22.565 13 22.013C13 22.008 13 22.003 13 21.998V21.999V17.999C13 17.995 13 17.99 13 17.985C13 17.433 12.552 16.985 12 16.985C11.995 16.985 11.989 16.985 11.984 16.985H11.985L11.984 16.986Z" fill="#8A94A6"/>
</svg>
